name rise49.8558peak67.6521fall70.3087.mot
datacolumns 19
datarows 35
range 11.53496000000000 11.59162200000000
endheader
time	ground_force1_vx	ground_force1_vy	ground_force1_vz	ground_force1_px	ground_force1_py	ground_force1_pz	ground_force2_vx	ground_force2_vy	ground_force2_vz	ground_force2_px	ground_force2_py	ground_force2_pz	ground_torque1_x	ground_torque1_y	ground_torque1_z	ground_torque2_x	ground_torque2_y	ground_torque2_z	
11.53496000000000	-3.84359600000000	42.25360600000000	-9.19510200000000	0.37490300000000	0.00000000000000	0.10214600000000	-58.56557700000000	807.83995200000004	-60.45616400000000	0.20348500000000	0.00000000000000	-0.10029400000000	0.00000000000000	-8.04952100000000	0.00000000000000	0.00000000000000	-33.33047700000000	0.00000000000000	
11.53662700000000	-4.16410900000000	49.37485000000000	-10.35240200000000	0.38155300000000	0.00000000000000	0.10272200000000	-59.14777800000000	805.86850400000003	-60.19937700000000	0.20245300000000	0.00000000000000	-0.10022800000000	0.00000000000000	-9.15806100000000	0.00000000000000	0.00000000000000	-33.21944800000000	0.00000000000000	
11.53829100000000	-4.39465200000000	56.54397200000000	-11.40785000000000	0.38762200000000	0.00000000000000	0.10325300000000	-59.73975700000000	803.77355599999999	-59.92042900000000	0.20142200000000	0.00000000000000	-0.10015800000000	0.00000000000000	-10.19399500000000	0.00000000000000	0.00000000000000	-33.10465000000000	0.00000000000000	
11.53996000000000	-4.52318800000000	63.66438800000000	-12.33685000000000	0.39320100000000	0.00000000000000	0.10374400000000	-60.34131300000000	801.55382199999997	-59.61915300000000	0.20039400000000	0.00000000000000	-0.10008500000000	0.00000000000000	-11.13356100000000	0.00000000000000	0.00000000000000	-32.98613200000000	0.00000000000000	
11.54162700000000	-4.54221400000000	70.66368100000000	-13.12287200000000	0.39836300000000	0.00000000000000	0.10420200000000	-60.95217400000000	799.20800599999995	-59.29540000000000	0.19936700000000	0.00000000000000	-0.10000700000000	0.00000000000000	-11.95998900000000	0.00000000000000	0.00000000000000	-32.86393300000000	0.00000000000000	
11.54329500000000	-4.44869600000000	77.49569800000000	-13.75759000000000	0.40316600000000	0.00000000000000	0.10463100000000	-61.57200000000000	796.73480300000006	-58.94903500000000	0.19834400000000	0.00000000000000	-0.09992500000000	0.00000000000000	-12.66379200000000	0.00000000000000	0.00000000000000	-32.73808300000000	0.00000000000000	
11.54495800000000	-4.24364700000000	84.14014600000000	-14.24031000000000	0.40765900000000	0.00000000000000	0.10503400000000	-62.20037700000000	794.13289799999995	-58.57994100000000	0.19732600000000	0.00000000000000	-0.09983800000000	0.00000000000000	-13.24242600000000	0.00000000000000	0.00000000000000	-32.60860300000000	0.00000000000000	
11.54662700000000	-3.93145900000000	90.60012800000000	-14.57689200000000	0.41188200000000	0.00000000000000	0.10541500000000	-62.83682000000000	791.40096400000004	-58.18802100000000	0.19631300000000	0.00000000000000	-0.09974700000000	0.00000000000000	-13.69942800000000	0.00000000000000	0.00000000000000	-32.47550200000000	0.00000000000000	
11.54829200000000	-3.51907100000000	96.89817400000000	-14.77830500000000	0.41586900000000	0.00000000000000	0.10577600000000	-63.48076700000000	788.53766900000005	-57.77319700000000	0.19530600000000	0.00000000000000	-0.09965100000000	0.00000000000000	-14.04321000000000	0.00000000000000	0.00000000000000	-32.33877800000000	0.00000000000000	
11.54995200000000	-3.01508300000000	103.07137200000000	-14.85902500000000	0.41964700000000	0.00000000000000	0.10612000000000	-64.13158300000001	785.54167199999995	-57.33541200000000	0.19430600000000	0.00000000000000	-0.09955100000000	0.00000000000000	-14.28564900000000	0.00000000000000	0.00000000000000	-32.19842100000000	0.00000000000000	
11.55162500000000	-2.42888600000000	109.16614800000001	-14.83542300000000	0.42324100000000	0.00000000000000	0.10644800000000	-64.78855600000000	782.41162699999995	-56.87463200000000	0.19331400000000	0.00000000000000	-0.09944600000000	0.00000000000000	-14.44064900000000	0.00000000000000	0.00000000000000	-32.05440800000000	0.00000000000000	
11.55329400000000	-1.76989000000000	115.23318700000000	-14.72428000000000	0.42667100000000	0.00000000000000	0.10676300000000	-65.45089900000001	779.14618499999995	-56.39084600000000	0.19233100000000	0.00000000000000	-0.09933600000000	0.00000000000000	-14.52277400000000	0.00000000000000	0.00000000000000	-31.90670400000000	0.00000000000000	
11.55495400000000	-1.04687800000000	121.32287300000000	-14.54152300000000	0.42995300000000	0.00000000000000	0.10706400000000	-66.11774500000000	775.74399700000004	-55.88406900000000	0.19135800000000	0.00000000000000	-0.09922100000000	0.00000000000000	-14.54607100000000	0.00000000000000	0.00000000000000	-31.75526500000000	0.00000000000000	
11.55662700000000	-0.26753700000000	127.48151799999999	-14.30125300000000	0.43310200000000	0.00000000000000	0.10735400000000	-66.78815400000001	772.20371599999999	-55.35434100000000	0.19039600000000	0.00000000000000	-0.09910100000000	0.00000000000000	-14.52312800000000	0.00000000000000	0.00000000000000	-31.60003400000000	0.00000000000000	
11.55829400000000	0.56185100000000	133.74853300000001	-14.01507100000000	0.43613100000000	0.00000000000000	0.10763400000000	-67.46110600000000	768.52400299999999	-54.80173400000000	0.18944600000000	0.00000000000000	-0.09897700000000	0.00000000000000	-14.46440800000000	0.00000000000000	0.00000000000000	-31.44094600000000	0.00000000000000	
11.55995700000000	1.43654900000000	140.15459200000001	-13.69172200000000	0.43905100000000	0.00000000000000	0.10790300000000	-68.13550900000000	764.70352900000000	-54.22634500000000	0.18850800000000	0.00000000000000	-0.09884700000000	0.00000000000000	-14.37786400000000	0.00000000000000	0.00000000000000	-31.27792100000000	0.00000000000000	
11.56162300000000	2.35335400000000	146.72075200000000	-13.33701500000000	0.44187100000000	0.00000000000000	0.10816400000000	-68.81019100000000	760.74098000000004	-53.62830400000000	0.18758400000000	0.00000000000000	-0.09871200000000	0.00000000000000	-14.26881000000000	0.00000000000000	0.00000000000000	-31.11087100000000	0.00000000000000	
11.56329300000000	3.31047500000000	153.45841400000000	-12.95397400000000	0.44459900000000	0.00000000000000	0.10841700000000	-69.48390999999999	756.63506099999995	-53.00777600000000	0.18667400000000	0.00000000000000	-0.09857100000000	0.00000000000000	-14.14001800000000	0.00000000000000	0.00000000000000	-30.93969500000000	0.00000000000000	
11.56495600000000	4.30731600000000	160.36998399999999	-12.54317900000000	0.44724100000000	0.00000000000000	0.10866200000000	-70.15534800000000	752.38450399999999	-52.36495500000000	0.18578000000000	0.00000000000000	-0.09842500000000	0.00000000000000	-13.99198300000000	0.00000000000000	0.00000000000000	-30.76428500000000	0.00000000000000	
11.56662200000000	5.34420400000000	167.45005300000000	-12.10322400000000	0.44980400000000	0.00000000000000	0.10890000000000	-70.82311799999999	747.98806800000000	-51.70007500000000	0.18490200000000	0.00000000000000	-0.09827400000000	0.00000000000000	-13.82332100000000	0.00000000000000	0.00000000000000	-30.58452100000000	0.00000000000000	
11.56828500000000	6.42209600000000	174.68690699999999	-11.63124100000000	0.45229200000000	0.00000000000000	0.10913100000000	-71.48576400000000	743.44455200000004	-51.01340400000000	0.18404000000000	0.00000000000000	-0.09811800000000	0.00000000000000	-13.63123200000000	0.00000000000000	0.00000000000000	-30.40027400000000	0.00000000000000	
11.56995700000000	7.54228200000000	182.06420199999999	-11.12344000000000	0.45471100000000	0.00000000000000	0.10935600000000	-72.14176100000000	738.75279699999999	-50.30524700000000	0.18319700000000	0.00000000000000	-0.09795600000000	0.00000000000000	-13.41199100000000	0.00000000000000	0.00000000000000	-30.21140500000000	0.00000000000000	
11.57162600000000	8.70611100000000	189.56264200000001	-10.57562800000000	0.45706300000000	0.00000000000000	0.10957600000000	-72.78952200000001	733.91169400000001	-49.57595100000000	0.18237200000000	0.00000000000000	-0.09778900000000	0.00000000000000	-13.16142100000000	0.00000000000000	0.00000000000000	-30.01776700000000	0.00000000000000	
11.57329000000000	9.91476100000000	197.16154599999999	-9.98365400000000	0.45935100000000	0.00000000000000	0.10978900000000	-73.42739800000000	728.92019300000004	-48.82589900000000	0.18156700000000	0.00000000000000	-0.09761600000000	0.00000000000000	-12.87531500000000	0.00000000000000	0.00000000000000	-29.81920700000000	0.00000000000000	
11.57495300000000	11.16905200000000	204.84019699999999	-9.34378500000000	0.46157900000000	0.00000000000000	0.10999700000000	-74.05368199999999	723.77731400000005	-48.05551800000000	0.18078200000000	0.00000000000000	-0.09743700000000	0.00000000000000	-12.54979400000000	0.00000000000000	0.00000000000000	-29.61556300000000	0.00000000000000	
11.57662800000000	12.46931400000000	212.57893300000001	-8.65297800000000	0.46374900000000	0.00000000000000	0.11019900000000	-74.66661499999999	718.48215100000004	-47.26527300000000	0.18001700000000	0.00000000000000	-0.09725300000000	0.00000000000000	-12.18157100000000	0.00000000000000	0.00000000000000	-29.40666600000000	0.00000000000000	
11.57829100000000	13.81531200000000	220.35993700000000	-7.90906900000000	0.46586200000000	0.00000000000000	0.11039700000000	-75.26438600000000	713.03388600000005	-46.45567400000000	0.17927400000000	0.00000000000000	-0.09706400000000	0.00000000000000	-11.76813800000000	0.00000000000000	0.00000000000000	-29.19234300000000	0.00000000000000	
11.57995200000000	15.20621500000000	228.16773699999999	-7.11085600000000	0.46792000000000	0.00000000000000	0.11059000000000	-75.84513699999999	707.43180099999995	-45.62726800000000	0.17855200000000	0.00000000000000	-0.09686900000000	0.00000000000000	-11.30786500000000	0.00000000000000	0.00000000000000	-28.97241400000000	0.00000000000000	
11.58162100000000	16.64060400000000	235.98943800000001	-6.25811300000000	0.46992400000000	0.00000000000000	0.11077800000000	-76.40697299999999	701.67528800000002	-44.78064900000000	0.17785300000000	0.00000000000000	-0.09666800000000	0.00000000000000	-10.80001700000000	0.00000000000000	0.00000000000000	-28.74669800000000	0.00000000000000	
11.58328700000000	18.11652400000000	243.81470999999999	-5.35153700000000	0.47187500000000	0.00000000000000	0.11096200000000	-76.94795800000000	695.76385900000002	-43.91644800000000	0.17717700000000	0.00000000000000	-0.09646200000000	0.00000000000000	-10.24472400000000	0.00000000000000	0.00000000000000	-28.51500700000000	0.00000000000000	
11.58495700000000	19.63154900000000	251.63560600000000	-4.39264100000000	0.47377300000000	0.00000000000000	0.11114100000000	-77.46612700000000	689.69716300000005	-43.03534000000000	0.17652500000000	0.00000000000000	-0.09625000000000	0.00000000000000	-9.64288700000000	0.00000000000000	0.00000000000000	-28.27715300000000	0.00000000000000	
11.58661900000000	21.18286600000000	259.44624099999999	-3.38362500000000	0.47562000000000	0.00000000000000	0.11131500000000	-77.95949100000000	683.47499700000003	-42.13803900000000	0.17589600000000	0.00000000000000	-0.09603300000000	0.00000000000000	-8.99606100000000	0.00000000000000	0.00000000000000	-28.03294800000000	0.00000000000000	
11.58828800000000	22.76736300000000	267.24238500000001	-2.32722500000000	0.47741400000000	0.00000000000000	0.11148500000000	-78.42603800000001	677.09731499999998	-41.22529900000000	0.17529100000000	0.00000000000000	-0.09581000000000	0.00000000000000	-8.30632400000000	0.00000000000000	0.00000000000000	-27.78220000000000	0.00000000000000	
11.58995500000000	24.38172000000000	275.02104000000003	-1.22656100000000	0.47915800000000	0.00000000000000	0.11165100000000	-78.86374400000000	670.56424700000002	-40.29791400000000	0.17471100000000	0.00000000000000	-0.09558100000000	0.00000000000000	-7.57613300000000	0.00000000000000	0.00000000000000	-27.52472100000000	0.00000000000000	
11.59162200000000	26.02248500000000	282.78000900000001	-0.08499300000000	0.48084900000000	0.00000000000000	0.11181300000000	-79.27057400000000	663.87609999999995	-39.35671300000000	0.17415600000000	0.00000000000000	-0.09534700000000	0.00000000000000	-6.80819400000000	0.00000000000000	0.00000000000000	-27.26032400000000	0.00000000000000	
